<?xml version="1.0" encoding="UTF-8" standalone="no"?>
<!DOCTYPE svg PUBLIC "-//W3C//DTD SVG 1.1//EN" "http://www.w3.org/Graphics/SVG/1.1/DTD/svg11.dtd">
<svg width="100%" height="100%" viewBox="0 0 1001 867" version="1.1" xmlns="http://www.w3.org/2000/svg" xmlns:xlink="http://www.w3.org/1999/xlink" xml:space="preserve" xmlns:serif="http://www.serif.com/" style="fill-rule:evenodd;clip-rule:evenodd;stroke-linejoin:round;stroke-miterlimit:2;">
    <g transform="matrix(1,0,0,1,-1031.45,-594.515)">
        <path d="M1481.86,1287.74L1481.86,1287.74L1531.86,1374.34L1431.86,1374.34L1431.86,1374.34L1381.86,1287.74L1431.86,1201.14L1481.86,1287.74ZM1731.86,1201.14L1781.86,1287.74L1681.86,1287.74L1731.86,1201.14ZM1631.86,1201.14L1731.86,1201.14L1681.86,1287.74L1681.86,1287.74L1581.86,1287.74L1631.86,1201.14L1631.86,1201.14ZM1381.86,1287.74L1331.86,1201.14L1431.86,1201.14L1381.86,1287.74ZM1781.86,1287.74L1731.86,1201.14L1831.86,1201.14L1781.86,1287.74ZM1631.86,1201.14L1581.86,1287.74L1481.86,1114.54L1581.86,1114.54L1631.86,1201.14ZM1331.86,1027.94L1281.87,1114.54L1281.87,1114.54L1231.87,1201.14L1181.87,1114.54L1181.87,1114.54L1231.87,1027.94L1331.86,1027.94ZM1281.87,941.338L1381.86,941.339L1381.86,941.34L1381.86,941.339L1431.86,1027.94L1431.86,1027.94L1481.86,1114.54L1431.86,1201.14L1331.86,1201.14L1431.86,1027.94L1331.87,1027.94L1281.87,941.338ZM1731.86,1027.94L1831.86,1027.94L1781.86,1114.54L1681.86,1114.54L1731.86,1027.94ZM1631.86,1027.94L1681.86,1114.54L1581.86,1114.54L1631.86,1027.94ZM1681.86,768.141L1681.86,768.14L1731.86,854.74L1631.87,854.74L1731.86,854.74L1631.86,1027.94L1731.86,1027.94L1681.86,1114.54L1631.86,1027.94L1631.86,1027.94L1581.86,941.34L1681.86,941.34L1581.86,941.34L1631.86,854.741L1581.86,768.142L1631.86,681.542L1681.86,768.141ZM1481.86,941.34L1431.86,1027.94L1381.86,941.339L1481.86,941.34ZM1231.87,1027.94L1281.87,941.338L1331.87,1027.94L1231.87,1027.94ZM1881.86,941.339L1881.86,941.339L1831.86,1027.94L1781.86,941.34L1831.86,1027.94L1731.86,1027.94L1781.86,941.34L1781.86,941.34L1831.86,854.737L1881.86,941.339ZM1581.86,941.339L1481.86,941.34L1531.86,854.738L1581.86,941.339ZM1531.86,854.738L1481.86,941.34L1381.87,768.138L1481.87,768.137L1531.86,854.738ZM1381.86,768.138L1431.86,854.739L1331.87,854.74C1331.87,854.74 1231.87,854.742 1231.87,854.742L1281.87,768.145L1281.86,768.139L1381.86,768.138ZM1581.86,768.14L1531.86,681.54L1631.86,681.54L1581.86,768.14Z" style="fill:#005368;stroke:#005368;stroke-width:0.83px;stroke-linecap:round;stroke-miterlimit:10;"/>
        <path d="M1731.85,1374.36L1731.85,1374.36L1731.85,1374.37L1781.85,1460.96L1681.85,1460.96L1681.85,1460.96L1681.85,1460.96L1681.85,1460.96L1681.85,1460.96L1631.85,1374.36L1731.85,1374.36L1731.85,1374.36L1731.85,1374.36ZM1531.85,1374.36L1631.85,1374.36L1581.85,1460.96L1581.85,1460.96L1631.85,1374.36L1681.85,1460.96L1581.85,1460.96L1581.85,1460.96L1481.85,1460.96L1531.85,1374.36L1531.85,1374.36L1481.85,1460.95L1431.85,1374.36L1531.85,1374.36L1531.85,1374.36ZM1781.85,1287.76L1881.85,1287.76L1831.85,1374.36L1831.85,1374.36L1831.85,1374.36L1781.85,1460.96L1731.85,1374.36L1731.85,1374.36L1781.85,1287.76L1781.85,1287.76L1781.85,1287.76L1781.85,1287.75L1781.85,1287.76ZM1331.86,1374.35L1331.86,1374.35L1331.86,1374.35L1331.86,1374.35L1331.85,1374.35L1331.85,1374.36L1431.85,1374.36L1431.85,1374.36L1431.85,1374.36L1431.85,1374.36L1431.85,1374.36L1481.85,1460.95L1381.85,1460.95L1381.85,1460.96L1381.85,1460.95L1281.85,1460.95L1281.86,1460.95L1231.86,1374.35L1231.86,1374.35L1231.86,1374.35L1231.86,1374.35L1231.86,1374.35L1281.86,1287.75L1331.86,1374.35ZM1231.86,1201.15L1131.87,1201.14L1181.86,1114.54L1231.86,1201.15L1231.86,1201.15L1281.86,1287.75L1181.86,1287.75L1181.86,1287.75L1281.86,1287.75L1231.86,1374.35L1181.86,1287.75L1181.86,1287.75L1131.86,1201.15L1231.86,1201.15L1231.86,1201.15ZM1931.85,1201.16L1931.85,1201.16L1881.85,1287.76L1831.85,1201.16L1831.85,1201.16L1881.85,1287.75L1781.85,1287.75L1831.85,1201.15L1831.85,1201.15L1881.85,1114.56L1931.85,1201.16L1931.85,1201.16L1881.85,1114.56L1981.85,1114.55L1931.85,1201.16ZM1081.87,1114.54L1031.87,1027.94L1131.86,1027.94L1131.86,1027.94L1181.86,1114.54L1181.86,1114.54L1181.86,1114.54L1181.86,1114.54L1181.86,1114.54L1131.87,1201.14L1081.87,1114.54L1081.87,1114.54L1081.87,1114.54ZM1931.86,1027.95L2031.85,1027.95L1981.85,1114.55L1981.85,1114.55L1981.85,1114.55L1981.85,1114.56L1981.85,1114.55L1881.85,1114.56L1931.85,1027.95L1931.85,1027.95L1931.85,1027.95L1931.85,1027.95L1931.86,1027.95ZM1581.87,941.342L1631.86,1027.94L1631.87,1027.94L1581.87,1114.54L1531.87,1027.94L1531.87,1027.94L1531.87,1027.94L1581.87,1114.54L1481.87,1114.54L1481.87,1114.54L1431.87,1027.94L1431.87,1027.94L1481.87,941.34L1531.86,1027.94L1531.87,1027.94L1531.87,1027.94L1481.87,941.339L1581.87,941.339L1581.87,941.342ZM1981.85,941.35L1981.85,941.35L1981.85,941.35L2031.85,1027.95L1931.85,1027.95L1931.85,1027.95L1881.86,941.351L1881.85,941.351L1881.85,941.35L1881.85,941.349L1881.86,941.349L1931.85,854.75L1981.85,941.35ZM1081.86,941.336L1181.86,941.335L1131.86,1027.93L1131.86,1027.94L1131.86,1027.94L1131.86,1027.94L1131.86,1027.94L1031.86,1027.94L1081.86,941.337L1081.86,941.336L1081.86,941.336L1081.86,941.334L1081.86,941.336ZM1881.86,768.145L1881.86,768.143L1931.86,854.746L1831.86,854.745L1831.86,854.746L1931.85,854.748L1881.85,941.349L1831.85,854.746L1831.86,854.746L1781.86,768.146L1881.86,768.147L1881.86,768.146L1781.86,768.145L1831.86,681.544L1881.86,768.145ZM1231.86,854.733L1231.86,854.733L1181.87,768.137L1281.87,768.136L1231.87,854.738L1231.86,854.734L1181.87,941.335L1131.87,854.734L1131.87,854.734L1181.86,941.334L1081.87,941.335L1131.87,854.734L1131.86,854.734L1181.86,768.131L1231.86,854.733ZM1681.86,594.94L1781.86,594.94L1781.86,594.941L1831.86,681.54L1831.86,681.54L1831.86,681.541L1831.86,681.542L1831.86,681.542L1781.86,768.141L1731.86,681.541L1731.86,681.541L1731.86,681.54L1731.86,681.539L1731.86,681.54L1731.86,681.539L1631.86,681.539L1631.86,681.54L1631.86,681.539L1631.86,681.539L1631.86,681.538L1581.86,594.94L1681.86,594.94L1681.86,594.939L1681.86,594.94ZM1381.86,594.932L1381.87,594.932L1381.87,594.933L1431.86,681.531L1331.87,681.531L1331.87,681.532L1331.87,681.531L1331.87,681.531L1331.87,681.533L1331.87,681.533L1281.87,768.133L1281.87,768.134L1281.87,768.134L1281.87,768.135L1281.86,768.134L1181.87,768.135L1231.87,681.535L1231.87,681.534L1231.87,681.534L1281.87,594.934L1281.87,594.932L1381.86,594.932L1381.86,594.931L1381.86,594.932ZM1531.86,681.532L1531.87,681.534L1581.86,594.94L1631.86,681.54L1531.86,681.54L1531.86,681.536L1431.87,681.536L1481.87,594.936L1481.87,594.935L1431.87,681.534L1381.87,594.934L1481.86,594.934L1481.86,594.933L1581.86,594.933L1531.86,681.532ZM1731.86,681.539L1731.86,681.539L1753.74,643.653L1731.86,681.539ZM1331.86,681.53L1331.86,681.53L1319.37,659.882L1331.86,681.53Z" style="fill:#1b3853;stroke:#1b3853;stroke-width:0.83px;stroke-linecap:round;stroke-miterlimit:10;"/>
        <path d="M1231.86,1201.14L1281.86,1114.54L1331.86,1201.14L1331.86,1201.14L1431.86,1374.34L1331.86,1374.34L1231.86,1201.14L1231.86,1201.14ZM1681.87,1287.74L1781.86,1287.74L1731.86,1374.34L1731.87,1374.34L1731.86,1374.34L1731.86,1374.34L1731.86,1374.34L1631.87,1374.34L1631.87,1374.34L1631.87,1374.34L1631.87,1374.34L1631.87,1374.34L1581.87,1287.74L1681.87,1287.74L1681.87,1287.74L1681.87,1287.74ZM1581.86,1287.74L1631.86,1374.34L1531.86,1374.34L1581.86,1287.74ZM1531.86,1201.14L1531.86,1201.14L1531.86,1201.14L1531.86,1201.14L1531.86,1201.14L1531.86,1201.14L1581.86,1287.74L1581.86,1287.74L1581.86,1287.74L1581.86,1287.74L1581.86,1287.74L1531.86,1374.34L1481.86,1287.74L1481.86,1287.74L1481.86,1287.74L1481.86,1287.74L1481.86,1287.74L1481.86,1287.74L1431.86,1201.14L1431.86,1201.14L1431.86,1201.14L1431.86,1201.14L1431.86,1201.14L1481.86,1114.54L1531.86,1201.14ZM1881.86,1114.54L1831.86,1201.14L1731.86,1201.14L1781.86,1114.54L1881.86,1114.54ZM1631.86,1201.14L1681.86,1114.54L1781.86,1114.54L1731.86,1201.14L1631.86,1201.14ZM1381.86,1114.54L1381.86,1114.54L1381.86,1114.54L1381.86,1114.54L1381.86,1114.54L1331.86,1201.14L1281.86,1114.54L1281.86,1114.54L1281.86,1114.54L1281.86,1114.54L1281.86,1114.54L1331.86,1027.94L1381.86,1114.54ZM1631.86,1201.14L1581.86,1114.54L1681.86,1114.54L1631.86,1201.14ZM1881.86,941.342L1931.86,1027.94L1881.86,1114.54L1781.86,1114.54L1881.86,941.342ZM1381.86,1114.54L1331.86,1027.94L1431.86,1027.94L1381.86,1114.54ZM1181.86,1114.54L1131.86,1027.94L1231.86,1027.94L1181.86,1114.54ZM1731.86,1027.94L1631.86,1027.94L1681.86,941.339L1681.86,941.339L1681.86,941.339L1731.86,854.741L1681.86,768.144L1681.86,768.144L1681.86,768.143L1681.86,768.143L1681.86,768.143L1681.86,768.142L1631.87,681.545L1731.86,681.545L1731.86,681.544L1731.86,681.545L1731.87,681.545L1731.87,681.546L1781.86,768.143L1781.86,768.143L1781.86,768.143L1781.86,768.144L1781.86,768.144L1731.87,854.739L1731.87,854.739L1781.86,768.145L1831.86,854.739L1831.86,854.739L1831.86,854.742L1831.86,854.745L1831.86,854.745L1781.86,941.339L1781.86,941.34L1781.86,941.34L1731.86,1027.94L1681.86,941.34L1681.86,941.34L1731.86,1027.94ZM1181.86,941.339L1281.86,941.339L1181.86,941.339L1231.86,854.739L1231.86,854.74L1331.86,854.74L1281.86,941.34L1281.86,941.34L1231.86,1027.94L1131.86,1027.94L1181.86,941.339ZM1331.86,854.74L1381.86,941.34L1281.86,941.34L1331.86,854.74ZM1581.87,768.142L1581.87,768.142L1581.87,768.143L1581.87,768.143L1581.87,768.143L1581.87,768.144L1631.86,854.74L1631.86,854.74L1631.86,854.741L1631.86,854.741L1631.86,854.741L1581.86,941.34L1531.86,854.741L1531.86,854.741L1531.86,854.741L1531.86,854.74L1531.86,854.74L1531.86,854.74L1481.87,768.143L1481.87,768.143L1481.87,768.143L1481.87,768.142L1481.87,768.142L1531.87,681.543L1581.87,768.142ZM1431.86,854.739L1481.86,941.339L1381.86,941.339L1431.86,854.739ZM1381.86,941.339L1331.86,854.739L1431.86,854.739L1381.86,941.339ZM1731.87,854.745L1781.86,941.339L1781.86,941.339L1731.87,854.745L1731.87,854.745ZM1731.86,854.741L1731.87,854.742L1731.87,854.742L1731.87,854.741L1731.86,854.741ZM1331.87,681.537L1431.87,681.537L1431.87,681.536L1431.87,681.537L1431.87,681.537L1431.87,681.538L1481.87,768.136L1381.87,768.136L1381.87,768.137L1381.87,768.136L1281.87,768.136L1331.87,681.536L1331.87,681.537ZM1481.87,768.136L1431.87,681.536L1531.87,681.536L1481.87,768.136Z" style="fill:#fff700;stroke:#fff700;stroke-width:0.83px;stroke-linecap:round;stroke-miterlimit:10;"/>
    </g>
</svg>
